<?xml version="1.0" standalone="no"?>
<!DOCTYPE svg PUBLIC "-//W3C//DTD SVG 20010904//EN"
 "http://www.w3.org/TR/2001/REC-SVG-20010904/DTD/svg10.dtd">
<svg version="1.0" xmlns="http://www.w3.org/2000/svg"
 width="60.000000pt" height="50.000000pt" viewBox="65 200 500.000000 90.000000"
 preserveAspectRatio="xMidYMid meet">

<g transform="translate(0.000000,520.990000) scale(0.100,-0.100)"
fill="#2b6777" stroke="none">
<path d="M2210 4949 c-331 -43 -632 -177 -882 -394 -206 -179 -379 -443 -468
-713 -41 -128 -73 -288 -68 -342 l3 -35 150 0 149 0 13 75 c47 278 172 520
372 720 192 191 398 302 671 363 92 20 124 21 1105 24 875 3 1013 2 1030 -11
19 -14 20 -29 25 -593 l5 -578 150 0 150 0 3 434 c1 300 6 438 13 448 25 30
55 13 159 -92 l105 -105 5 -343 5 -342 150 0 150 0 0 407 0 408 -338 337 -337
338 -1128 1 c-620 1 -1156 -2 -1192 -7z"/>
<path d="M2280 4359 c-159 -18 -311 -75 -449 -166 -215 -143 -372 -368 -432
-619 -11 -47 -18 -93 -15 -100 5 -12 34 -14 157 -12 l152 3 22 70 c37 123 91
212 185 306 72 73 101 94 180 132 162 79 138 77 905 77 704 0 705 0 705 -40 0
-25 -78 -223 -92 -232 -7 -4 -283 -8 -614 -8 -652 0 -644 1 -758 -57 -97 -49
-220 -192 -203 -237 6 -15 82 -16 999 -14 l993 3 3 440 c2 405 1 441 -15 453
-13 9 -194 12 -832 11 -449 -1 -850 -5 -891 -10z"/>
<path d="M1606 3149 c-75 -12 -170 -63 -211 -113 -76 -93 -108 -233 -87 -378
21 -147 83 -236 201 -292 62 -29 73 -31 181 -31 89 0 126 4 165 19 143 55 215
154 235 324 16 143 -18 283 -88 363 -80 91 -240 135 -396 108z m162 -229 c45
-28 65 -79 66 -170 0 -134 -42 -200 -130 -200 -91 0 -133 50 -142 170 -6 85
11 145 53 187 27 27 41 33 77 33 25 0 56 -8 76 -20z"/>
<path d="M847 3133 c-4 -3 -7 -119 -7 -257 0 -219 -2 -255 -18 -286 -15 -31
-22 -35 -63 -38 -52 -3 -72 12 -86 68 l-9 35 -120 0 -119 0 -3 -28 c-5 -38 24
-132 54 -177 55 -83 170 -126 310 -117 167 10 265 91 293 242 16 83 15 537 -1
553 -13 13 -219 18 -231 5z"/>
<path d="M2328 3134 c-5 -4 -8 -182 -8 -396 l0 -390 238 4 c224 3 240 5 290
27 86 39 132 108 132 201 0 62 -20 109 -62 150 l-41 39 31 35 c69 79 66 200
-7 268 -21 20 -56 42 -77 49 -44 13 -484 25 -496 13z m362 -187 c31 -16 39
-61 14 -88 -23 -26 -148 -28 -158 -3 -10 26 -7 79 6 92 16 16 106 15 138 -1z
m32 -294 c24 -22 24 -77 -2 -103 -16 -16 -33 -20 -88 -20 -40 0 -73 5 -80 12
-13 13 -16 85 -6 112 9 23 150 23 176 -1z"/>
<path d="M3208 3134 c-5 -4 -8 -182 -8 -396 l0 -390 238 4 237 3 60 30 c76 38
114 89 122 166 8 78 -10 132 -59 178 l-41 40 31 35 c69 79 66 200 -7 268 -21
20 -56 42 -77 49 -44 13 -484 25 -496 13z m362 -187 c31 -16 39 -61 14 -88
-23 -26 -148 -28 -158 -3 -10 26 -7 79 6 92 16 16 106 15 138 -1z m32 -294
c21 -19 24 -71 4 -98 -17 -24 -147 -35 -171 -15 -15 13 -21 84 -9 114 9 23
150 23 176 -1z"/>
<path d="M4087 3133 c-4 -3 -7 -181 -7 -395 l0 -388 289 0 c160 0 292 3 294 8
3 4 7 45 9 92 l3 85 -164 3 c-104 2 -170 7 -178 14 -9 7 -13 27 -11 52 l3 41
155 5 155 5 0 90 0 90 -144 3 c-89 2 -150 7 -158 14 -9 7 -13 26 -11 47 l3 36
145 2 c207 4 191 -5 188 106 l-3 92 -281 3 c-154 1 -283 -1 -287 -5z"/>
<path d="M4905 3129 c-3 -8 -4 -185 -3 -394 l3 -380 110 0 110 0 2 100 c4 142
5 145 53 145 l39 0 63 -122 63 -123 118 -3 c89 -2 119 0 122 10 3 8 -26 72
-65 143 -38 72 -70 135 -70 141 0 5 14 23 31 40 49 45 72 107 72 189 0 122
-47 196 -153 237 -49 19 -80 22 -272 26 -178 3 -219 2 -223 -9z m390 -204 c32
-31 32 -75 3 -109 -18 -20 -36 -27 -80 -32 -76 -9 -88 1 -88 76 0 88 2 90 77
90 55 0 67 -4 88 -25z"/>
<path d="M780 1625 c0 -324 3 -401 14 -423 8 -15 160 -172 338 -349 l323 -321
55 -7 c30 -4 548 -5 1150 -2 1071 4 1097 4 1209 26 639 120 1134 584 1292
1206 15 62 31 147 35 189 l7 76 -155 0 -155 0 -13 -77 c-19 -119 -56 -238
-110 -351 -67 -141 -127 -227 -234 -340 -186 -195 -380 -309 -649 -379 l-102
-27 -1040 -4 c-975 -3 -1041 -2 -1052 15 -10 13 -13 144 -13 590 l0 574 -152
-3 -153 -3 -3 -434 c-2 -443 -4 -461 -41 -461 -9 0 -67 51 -129 113 l-112 112
-2 335 -3 335 -152 3 -153 3 0 -396z"/>
<path d="M1967 2013 c-12 -11 -8 -852 3 -874 10 -19 31 -19 866 -19 825 0 860
1 957 21 340 69 632 315 756 638 31 80 63 219 55 233 -3 4 -74 8 -158 8 l-153
0 -17 -62 c-33 -119 -91 -215 -191 -314 -73 -74 -107 -99 -175 -132 -162 -80
-129 -77 -904 -77 -648 0 -689 1 -700 18 -9 14 -4 38 23 115 18 53 39 107 47
120 l14 22 588 0 c627 0 670 3 763 51 78 38 138 89 184 154 25 34 45 72 45 84
l0 21 -998 0 c-549 0 -1002 -3 -1005 -7z"/>
</g>
</svg>
